<svg width="960" height="1200" viewBox="0 0 960 1200" fill="none" xmlns="http://www.w3.org/2000/svg" role="img" aria-labelledby="title desc">
  <title id="title">Temporary professional portrait placeholder</title>
  <desc id="desc">A calm abstract portrait placeholder for the Portfolio hero section.</desc>
  <rect width="960" height="1200" fill="#F4ECFC"/>
  <rect x="54" y="54" width="852" height="1092" rx="62" fill="url(#paint0_linear)"/>
  <circle cx="480" cy="489" r="158" fill="url(#paint1_linear)"/>
  <path d="M251 1014C286 810 367 724 480 724C593 724 674 810 709 1014H251Z" fill="url(#paint2_linear)"/>
  <path d="M247 798C392 874 564 888 735 799" stroke="url(#paint3_linear)" stroke-width="5" stroke-linecap="round"/>
  <path d="M334 296C475 164 682 240 771 458" stroke="#C79DEB" stroke-width="5" stroke-linecap="round"/>
  <path d="M235 1080H725" stroke="#EFE2FA" stroke-width="3" stroke-linecap="round"/>
  <defs>
    <linearGradient id="paint0_linear" x1="54" y1="54" x2="906" y2="1146" gradientUnits="userSpaceOnUse">
      <stop stop-color="#F8F4FC" stop-opacity="0.92"/>
      <stop offset="0.56" stop-color="#F4E8FC" stop-opacity="0.86"/>
      <stop offset="1" stop-color="#F8D0F0" stop-opacity="0.82"/>
    </linearGradient>
    <linearGradient id="paint1_linear" x1="322" y1="331" x2="638" y2="647" gradientUnits="userSpaceOnUse">
      <stop stop-color="#E8D4F8"/>
      <stop offset="1" stop-color="#E8D0F8"/>
    </linearGradient>
    <linearGradient id="paint2_linear" x1="251" y1="724" x2="709" y2="1014" gradientUnits="userSpaceOnUse">
      <stop stop-color="#E8DCFC"/>
      <stop offset="1" stop-color="#F0D8F8"/>
    </linearGradient>
    <linearGradient id="paint3_linear" x1="247" y1="842" x2="735" y2="842" gradientUnits="userSpaceOnUse">
      <stop stop-color="#A78FE8"/>
      <stop offset="0.56" stop-color="#C79DEB"/>
      <stop offset="1" stop-color="#F2A8D4"/>
    </linearGradient>
  </defs>
</svg>
